<?xml version="1.0" encoding="UTF-8" standalone="no"?>
<svg
   xmlns:dc="http://purl.org/dc/elements/1.1/"
   xmlns:cc="http://creativecommons.org/ns#"
   xmlns:rdf="http://www.w3.org/1999/02/22-rdf-syntax-ns#"
   xmlns:svg="http://www.w3.org/2000/svg"
   xmlns="http://www.w3.org/2000/svg"
   viewBox="0 0 158.444 158.444"
   height="158.444"
   width="158.444"
   xml:space="preserve"
   id="svg2"
   version="1.1"><metadata
     id="metadata8"><rdf:RDF><cc:Work
         rdf:about=""><dc:format>image/svg+xml</dc:format><dc:type
           rdf:resource="http://purl.org/dc/dcmitype/StillImage" /></cc:Work></rdf:RDF></metadata><defs
     id="defs6"><linearGradient
       id="linearGradient40"
       spreadMethod="pad"
       gradientTransform="matrix(59.426197,102.92919,102.92919,-59.426197,29.70318,7.9516835)"
       gradientUnits="userSpaceOnUse"
       y2="0"
       x2="1"
       y1="0"
       x1="0"><stop
         id="stop24"
         offset="0"
         style="stop-opacity:1;stop-color:#b0acac" /><stop
         id="stop26"
         offset="0.0468931"
         style="stop-opacity:1;stop-color:#5b6069" /><stop
         id="stop28"
         offset="0.2"
         style="stop-opacity:1;stop-color:#5b6069" /><stop
         id="stop30"
         offset="0.5"
         style="stop-opacity:1;stop-color:#b0acac" /><stop
         id="stop32"
         offset="0.60291454"
         style="stop-opacity:1;stop-color:#e5eef2" /><stop
         id="stop34"
         offset="0.7"
         style="stop-opacity:1;stop-color:#e5eef2" /><stop
         id="stop36"
         offset="0.77891106"
         style="stop-opacity:1;stop-color:#e5eef2" /><stop
         id="stop38"
         offset="1"
         style="stop-opacity:1;stop-color:#8a8a8a" /></linearGradient><clipPath
       id="clipPath50"
       clipPathUnits="userSpaceOnUse"><path
         id="path48"
         d="M 0,118.833 H 118.833 V 0 H 0 Z" /></clipPath></defs><g
     transform="matrix(1.3333333,0,0,-1.3333333,0,158.444)"
     id="g10"><g
       id="g12"><g
         id="g14"><g
           id="g20"><g
             id="g22"><path
               id="path42"
               style="fill:url(#linearGradient40);stroke:none"
               d="M 59.416,118.832 C 26.601,118.832 0,92.231 0,59.416 v 0 C 0,26.601 26.601,0 59.416,0 v 0 c 32.815,0 59.416,26.601 59.416,59.416 v 0 c 0,32.815 -26.601,59.416 -59.416,59.416 z" /></g></g></g></g><g
       id="g44"><g
         clip-path="url(#clipPath50)"
         id="g46"><g
           transform="translate(55.3179,96.8165)"
           id="g52"><path
             id="path54"
             style="fill:#bbbbbc;fill-opacity:1;fill-rule:nonzero;stroke:none"
             d="M 0,0 C 0.77,1.56 2.359,2.548 4.098,2.548 5.838,2.548 7.427,1.56 8.197,0 l 9.334,-18.912 20.871,-3.033 c 1.721,-0.25 3.151,-1.456 3.689,-3.111 0.537,-1.654 0.089,-3.471 -1.156,-4.685 l -15.103,-14.721 3.565,-20.787 c 0.294,-1.714 -0.411,-3.447 -1.818,-4.47 -1.408,-1.022 -3.273,-1.157 -4.813,-0.347 l -18.668,9.813 -18.667,-9.813 c -1.54,-0.81 -3.406,-0.675 -4.814,0.347 -1.407,1.023 -2.112,2.756 -1.818,4.47 l 3.566,20.787 -15.103,14.721 c -1.245,1.214 -1.694,3.031 -1.156,4.685 0.537,1.655 1.968,2.861 3.689,3.111 l 20.871,3.033 z" /></g></g></g></g></svg>