<?xml version="1.0" standalone="no"?>
<!DOCTYPE svg PUBLIC "-//W3C//DTD SVG 20010904//EN"
 "http://www.w3.org/TR/2001/REC-SVG-20010904/DTD/svg10.dtd">
<svg version="1.0" xmlns="http://www.w3.org/2000/svg"
 width="579.000000pt" height="110.000000pt" viewBox="0 0 579.000000 110.000000"
 preserveAspectRatio="xMidYMid meet">

<g transform="translate(0.000000,110.000000) scale(0.100000,-0.100000)"
fill="#000000" stroke="none">
<path d="M294 1081 c-50 -23 -64 -41 -32 -41 80 -1 750 -39 754 -42 2 -3 -179
-5 -402 -5 -329 -1 -408 -4 -415 -15 -5 -7 -9 -32 -9 -55 0 -35 3 -42 23 -46
l22 -4 -22 -2 -23 -1 0 -367 c0 -352 1 -368 21 -410 14 -29 35 -52 63 -68 l43
-25 2634 0 2634 0 40 23 c22 12 50 40 62 62 22 39 23 46 23 352 l-1 311 -72 6
c-40 3 -162 8 -273 12 -111 3 -216 10 -235 14 -33 9 110 7 434 -6 l147 -6 0
95 c0 135 -22 180 -105 218 -39 18 -134 19 -2655 19 -2535 0 -2616 -1 -2656
-19z m1029 -278 c-13 -2 -33 -2 -45 0 -13 2 -3 4 22 4 25 0 35 -2 23 -4z
m1434 -89 c-3 -3 -12 -4 -19 -1 -8 3 -5 6 6 6 11 1 17 -2 13 -5z m2378 -69 c6
-2 -24 -3 -65 -4 -41 0 -84 4 -95 8 -19 8 139 3 160 -4z m-4720 -155 c22 -5 7
-8 -52 -9 -50 -1 -83 3 -83 9 0 11 90 11 135 0z m1360 -269 c259 -12 592 -28
740 -36 149 -8 394 -20 545 -27 151 -7 266 -14 255 -16 -11 -2 -23 -7 -27 -11
-4 -3 444 -28 995 -54 551 -27 1009 -50 1017 -52 30 -8 -387 5 -751 24 -206
11 -446 22 -534 25 -88 3 -533 24 -990 46 -456 22 -1019 49 -1250 60 -231 11
-552 27 -714 35 -161 8 -296 17 -300 21 -3 4 41 4 99 1 58 -2 113 -2 122 2 28
10 292 4 793 -18z m3652 13 c-3 -3 -12 -4 -19 -1 -8 3 -5 6 6 6 11 1 17 -2 13
-5z"/>
</g>
</svg>
